<?xml version="1.0" encoding="utf-8"?>
<svg version="1.1" xmlns="http://www.w3.org/2000/svg" viewBox="0 0 320 320">
  <g id="logo" fill="#fff">
    <rect id="background" fill="#466BB0" width="320" height="320" />
    <path d="M29.2582479,149.742409 C45.204928,145.385864 118.841821,145.385864 126.542871,149.742409 C131.676904,152.646773 109.082611,159.393748 58.7599917,169.983333 C28.4610424,159.393748 18.6271278,152.646773 29.2582479,149.742409 Z" id="Path"></path>
    <path d="M0.531765429,210.182219 C4.81436017,216.868155 17.5108773,199.482605 38.6213168,158.025568 C64.7871798,33.7001712 72.8440126,-17.2661904 62.7918153,5.12648345 C47.7135194,38.7154942 -5.89212668,200.153315 0.531765429,210.182219 Z" id="Path"></path>
    <path d="M105.847457,160.148503 C134.580259,213.881256 147.083988,229.525187 143.358642,207.080296 C137.770623,173.412959 85.0552222,12.6184909 69.0310101,0.767156667 C58.3482019,-7.13373282 70.6203509,45.9933828 105.847457,160.148503 Z" id="Path"></path>
  </g>
</svg>
