<svg viewBox="0 0 300 300">
<circle cx="150" cy="150" r="150" stroke-width="2" />
<path d="M103,170 C122.178381,165.69531 210.738281,165.69531 220,170 C226.174479,172.869794 199.001302,179.53646 138.480469,190 C102.041235,179.53646 90.2144126,172.869794 103,170 Z" id="Path"></path>
<path d="M70.6378326,229.000088 C75.7746436,235.521179 91.0036375,218.564277 116.324814,178.129381 C147.709781,56.8692793 157.373648,7.15951484 145.316416,29.0000878 C127.230569,61.7609473 62.9326161,219.218451 70.6378326,229.000088 Z" id="Path"></path>
<path d="M196.141229,180.628906 C230.932493,232.717448 246.072698,247.882678 241.561843,226.124595 C234.795561,193.487472 170.964844,37.6132812 151.561843,26.1245954 C138.626509,18.4654715 153.486305,69.9669084 196.141229,180.628906 Z" id="Path"></path>
</svg>
